<?xml version="1.0" encoding="UTF-8"?>
<svg id="Layer_1" data-name="Layer 1" xmlns="http://www.w3.org/2000/svg" viewBox="0 0 218.85 215.13">
  <defs>
    <style>
      .cls-1 {
        fill: #fff;
      }

      .cls-2 {
        fill: #010028;
      }
    </style>
  </defs>
  <circle class="cls-1" cx="109.43" cy="107.56" r="101.72"/>
  <g>
    <path class="cls-2" d="M87.21,126.71c0-28.12,21.82-43.63,43.64-43.63,14.55,0,28.28,6.95,35.88,20.69l-10.34,6.14c-5.33-9.05-14.87-14.38-25.37-14.38-15.19,0-30.22,11.31-30.22,31.19s15.03,31.19,30.22,31.19c10.51,0,20.04-5.33,25.37-14.38l10.34,6.14c-7.6,13.58-21.33,20.69-35.88,20.69-21.82,0-43.64-15.51-43.64-43.64Z"/>
    <path class="cls-2" d="M127.3,26.4V126.47c0,.33,0,.66-.01,.99-.52,23.72-19.55,42.85-42.87,42.85s-42.88-19.67-42.88-43.84,19.24-43.84,42.88-43.84c.4,0,.8,0,1.19,.01v12.2c-.39-.02-.79-.03-1.19-.03-17.07,0-30.95,14.2-30.95,31.65s13.88,31.65,30.95,31.65,30.43-13.67,30.94-30.66c.01-.33,.02-.66,.02-.99,0-.65-.02-1.29-.06-1.93V26.4h11.99Z"/>
  </g>
</svg>